#!OML:ASF I:\Actors\actors\Patient Classification 2\Patient 1\Session 1\actor1.ASF
:FULLY-SPECIFIED
:DEGREES
450
root 2.21819 17.6919 3.71105 20.1002 -24.0387 -9.00626
lowerback 29.1647 0.741625 -4.89728
upperback 6.4806 -0.894322 -2.23348
thorax -8.74801 -0.406889 0.646031
lowerneck -16.5856 3.53007 7.74155
upperneck 27.8038 2.80753 -0.954236
head 12.0535 1.866 -1.26522
rclavicle 2.38542e-014 3.18055e-014
rhumerus -72.411 29.3043 -107.961
rradius 109.011
rwrist 2.3066
rhand -19.7671 -66.1681
rfingers 7.12502
rthumb 6.56468 -263.954
lclavicle 2.38542e-014 3.18055e-014
lhumerus -23.0721 -14.1508 85.3514
lradius 95.4303
lwrist 86.6544
lhand -48.9532 -27.7146
lfingers 7.12502
lthumb -21.5841 1.10254
rfemur -14.9288 13.1092 8.27818
rtibia -16.5159
rfoot 3.24276 -16.8011
rtoes -3.87193
lfemur 9.4606 12.7519 -18.3736
ltibia -45.3757
lfoot 18.6979 16.2405
ltoes -2.29543
451
root 2.20523 17.6833 3.7146 20.2706 -24.8947 -8.99005
lowerback 29.0716 0.39846 -4.76148
upperback 6.68484 -1.29143 -2.33164
thorax -8.45951 -0.607429 0.598199
lowerneck -16.5661 3.86724 8.04543
upperneck 27.4403 3.26556 -1.1931
head 11.9423 2.06252 -1.33483
rclavicle 2.38542e-014 1.27222e-014
rhumerus -73.4996 28.3881 -107.781
rradius 108.862
rwrist 2.88348
rhand -20.1211 -65.2693
rfingers 7.12502
rthumb 6.2229 -264.842
lclavicle 2.38542e-014 1.27222e-014
lhumerus -24.1718 -14.2023 87.2722
lradius 95.1676
lwrist 86.648
lhand -48.845 -27.802
lfingers 7.12502
lthumb -21.4801 1.02703
rfemur -15.0683 13.4307 8.10616
rtibia -17.0277
rfoot 3.80949 -16.6687
rtoes -4.49461
lfemur 9.52576 13.2006 -18.5458
ltibia -45.5026
lfoot 18.634 16.4429
ltoes -2.64104
452
root 2.19092 17.6723 3.71523 20.5093 -25.8668 -9.10455
lowerback 29.1012 0.0702147 -4.51507
upperback 6.86923 -1.65559 -2.49472
thorax -8.26377 -0.793108 0.401735
lowerneck -16.6381 4.25733 8.48429
upperneck 27.1833 3.75552 -1.46254
head 11.9018 2.28448 -1.43173
rclavicle 1.59028e-015 2.38542e-014
rhumerus -74.1934 27.5613 -107.752
rradius 109.391
rwrist 1.55323
rhand -19.2921 -66.852
rfingers 7.12502
rthumb 7.02317 -263.285
lclavicle 1.59028e-015 2.38542e-014
lhumerus -24.9463 -14.0577 88.7937
lradius 94.7287
lwrist 86.7218
lhand -48.5616 -27.806
lfingers 7.12502
lthumb -21.2079 1.05392
rfemur -15.2831 13.8572 8.01803
rtibia -17.5051
rfoot 4.37747 -16.5088
rtoes -5.0745
lfemur 9.64101 13.6676 -18.5978
ltibia -45.6869
lfoot 18.5604 16.7626
ltoes -2.82587
453
root 2.17425 17.6573 3.71364 20.8464 -26.9277 -9.27985
lowerback 29.1716 -0.230709 -4.2701
upperback 7.02502 -1.99236 -2.6802
thorax -8.12683 -0.964177 0.171493
lowerneck -16.631 4.65923 9.13138
upperneck 26.8551 4.29199 -2.01716
head 11.8373 2.51217 -1.66266
rclavicle -4.77083e-015 2.22639e-014
rhumerus -74.699 26.8617 -107.911
rradius 109.37
rwrist 1.49776
rhand -19.279 -66.8522
rfingers 7.12502
rthumb 7.03581 -263.285
lclavicle -4.77083e-015 2.22639e-014
lhumerus -25.4759 -13.8319 89.9959
lradius 94.0936
lwrist 86.3875
lhand -47.9324 -27.699
lfingers 7.12502
lthumb -20.6035 1.22757
rfemur -15.6325 14.3669 7.92489
rtibia -17.935
rfoot 4.96694 -16.3331
rtoes -5.5927
lfemur 9.72256 14.1697 -18.6192
ltibia -45.9183
lfoot 18.494 17.1828
ltoes -2.75367
454
root 2.15584 17.6434 3.70921 21.2317 -28.0072 -9.4755
lowerback 29.2731 -0.495556 -4.10937
upperback 7.19516 -2.30169 -2.7947
thorax -7.98684 -1.12092 0.0596176
lowerneck -16.5469 5.04353 9.67933
upperneck 26.3585 4.85625 -2.62538
head 11.6991 2.73509 -1.89181
rclavicle 1.59028e-015 3.18055e-015
rhumerus -74.8786 26.344 -107.96
rradius 109.048
rwrist 1.98568
rhand -19.2611 -66.4771
rfingers 7.12502
rthumb 7.05316 -263.66
lclavicle 1.59028e-015 3.18055e-015
lhumerus -25.537 -13.4776 90.8136
lradius 93.6475
lwrist 86.7328
lhand -48.564 -27.9897
lfingers 7.12502
lthumb -21.2102 0.869944
rfemur -16.0387 14.9156 7.81249
rtibia -18.3551
rfoot 5.53827 -16.1695
rtoes -5.89296
lfemur 9.78235 14.6631 -18.6256
ltibia -46.1947
lfoot 18.4732 17.5922
ltoes -2.62802
455
root 2.14276 17.6277 3.70375 21.6088 -28.919 -9.62199
lowerback 29.5226 -0.846434 -3.76635
upperback 7.34466 -2.67545 -2.9153
thorax -7.95209 -1.30696 -0.138152
lowerneck -16.6103 5.42943 10.056
upperneck 25.9989 5.38538 -2.99714
head 11.6363 2.95587 -2.00633
rclavicle -3.81667e-014 3.49861e-014
rhumerus -74.6664 25.8732 -107.928
rradius 108.609
rwrist 2.29479
rhand -18.9852 -66.4229
rfingers 7.12502
rthumb 7.31943 -263.724
lclavicle -3.81667e-014 3.49861e-014
lhumerus -25.2915 -13.4078 91.2467
lradius 93.125
lwrist 86.8699
lhand -48.8337 -28.0499
lfingers 7.12502
lthumb -21.4693 0.780405
rfemur -16.4347 15.2781 7.68066
rtibia -18.7713
rfoot 6.02148 -16.0334
rtoes -5.61326
lfemur 9.79842 14.9493 -18.649
ltibia -46.4971
lfoot 18.5245 17.9386
ltoes -2.63463
456
root 2.12839 17.6064 3.69403 22.2486 -29.8277 -9.74371
lowerback 29.5198 -1.17627 -3.42467
upperback 7.45366 -3.00911 -3.04864
thorax -7.84769 -1.47404 -0.367689
lowerneck -16.79 5.7894 10.439
upperneck 25.7189 5.84622 -3.31489
head 11.6255 3.15368 -2.10919
rclavicle 4.29375e-014 -3.02153e-014
rhumerus -74.0669 25.4989 -107.92
rradius 108.064
rwrist 2.37374
rhand -18.8853 -66.3086
rfingers 7.12502
rthumb 7.41582 -263.841
lclavicle 4.29375e-014 -3.02153e-014
lhumerus -24.76 -13.5555 91.3331
lradius 92.6427
lwrist 86.9644
lhand -48.8229 -28.0777
lfingers 7.12502
lthumb -21.4589 0.753726
rfemur -17.1611 15.5675 7.42786
rtibia -19.1898
rfoot 6.44751 -16.0073
rtoes -4.68427
lfemur 9.50044 15.2691 -18.7752
ltibia -46.8203
lfoot 18.6292 18.2268
ltoes -2.79473
